<svg width="16" height="19" viewBox="0 0 16 19" fill="none" xmlns="http://www.w3.org/2000/svg">
<path d="M7.87792 9.15231C9.14704 9.15231 10.2459 8.70135 11.1439 7.8116C12.0417 6.922 12.497 5.83352 12.497 4.57601C12.497 3.31894 12.0419 2.23031 11.1438 1.34042C10.2457 0.450962 9.1469 0 7.87792 0C6.60864 0 5.50997 0.450962 4.61205 1.34056C3.71412 2.23017 3.25879 3.3188 3.25879 4.57601C3.25879 5.83352 3.71412 6.92214 4.61205 7.81175C5.51027 8.7012 6.60908 9.15231 7.87792 9.15231ZM5.40682 2.12783C6.09581 1.44522 6.90405 1.11342 7.87792 1.11342C8.85163 1.11342 9.66002 1.44522 10.3492 2.12783C11.0381 2.81058 11.3732 3.61147 11.3732 4.57601C11.3732 5.54085 11.0381 6.34159 10.3492 7.02434C9.66002 7.70709 8.85163 8.03889 7.87792 8.03889C6.90434 8.03889 6.09611 7.70694 5.40682 7.02434C4.71768 6.34174 4.38263 5.54085 4.38263 4.57601C4.38263 3.61147 4.71768 2.81058 5.40682 2.12783Z" fill="white"/>
<path d="M15.9612 14.61C15.9353 14.2398 15.8829 13.8359 15.8058 13.4095C15.728 12.9798 15.6278 12.5736 15.5078 12.2024C15.3837 11.8187 15.2153 11.4398 15.0068 11.0767C14.7907 10.6998 14.5367 10.3716 14.2517 10.1015C13.9537 9.81903 13.5887 9.59188 13.1668 9.42619C12.7463 9.26137 12.2803 9.17788 11.7818 9.17788C11.586 9.17788 11.3967 9.25746 11.031 9.49331C10.806 9.6387 10.5428 9.80685 10.249 9.99283C9.99777 10.1514 9.65744 10.3 9.23708 10.4345C8.82697 10.566 8.41056 10.6327 7.99941 10.6327C7.58857 10.6327 7.17216 10.566 6.76175 10.4345C6.34183 10.3001 6.00135 10.1516 5.75057 9.99297C5.45955 9.80873 5.19619 9.64058 4.96779 9.49316C4.60245 9.25732 4.41312 9.17773 4.21735 9.17773C3.71871 9.17773 3.25285 9.26137 2.83249 9.42634C2.41081 9.59173 2.04576 9.81888 1.74743 10.1017C1.46241 10.3719 1.20841 10.6999 0.992447 11.0767C0.784242 11.4398 0.615689 11.8186 0.491614 12.2026C0.371783 12.5738 0.271558 12.9798 0.193719 13.4095C0.116466 13.8354 0.0642318 14.2394 0.0383342 14.6104C0.0128756 14.9733 0 15.3509 0 15.7324C0 16.7242 0.318233 17.5271 0.945772 18.1193C1.56556 18.7036 2.3855 18.9999 3.38292 18.9999H12.6171C13.6142 18.9999 14.4341 18.7036 15.0541 18.1193C15.6818 17.5276 16 16.7244 16 15.7323C15.9999 15.3494 15.9868 14.9718 15.9612 14.61ZM14.2792 17.3126C13.8697 17.6988 13.326 17.8865 12.6169 17.8865H3.38292C2.67374 17.8865 2.13004 17.6988 1.72065 17.3127C1.31902 16.934 1.12384 16.4169 1.12384 15.7324C1.12384 15.3764 1.13569 15.0249 1.15939 14.6874C1.18251 14.3563 1.22977 13.9926 1.29985 13.6062C1.36906 13.2245 1.45714 12.8663 1.5619 12.542C1.66242 12.2311 1.79951 11.9232 1.96953 11.6266C2.13179 11.344 2.31849 11.1015 2.5245 10.9061C2.71719 10.7233 2.96007 10.5737 3.24626 10.4615C3.51095 10.3577 3.8084 10.3009 4.13132 10.2923C4.17067 10.313 4.24076 10.3526 4.3543 10.426C4.58533 10.5751 4.85162 10.7453 5.146 10.9316C5.47784 11.1412 5.90537 11.3305 6.41615 11.4939C6.93835 11.6611 7.47093 11.7461 7.99956 11.7461C8.52819 11.7461 9.06092 11.6611 9.58282 11.494C10.094 11.3303 10.5214 11.1412 10.8537 10.9313C11.155 10.7405 11.4138 10.5753 11.6448 10.426C11.7584 10.3528 11.8284 10.313 11.8678 10.2923C12.1909 10.3009 12.4883 10.3577 12.7531 10.4615C13.0392 10.5737 13.2821 10.7234 13.4748 10.9061C13.6808 11.1013 13.8675 11.3438 14.0297 11.6268C14.1999 11.9232 14.3371 12.2313 14.4375 12.5419C14.5424 12.8666 14.6306 13.2247 14.6997 13.606C14.7696 13.9932 14.8171 14.3571 14.8402 14.6876V14.6878C14.864 15.024 14.876 15.3754 14.8762 15.7324C14.876 16.417 14.6808 16.934 14.2792 17.3126Z" fill="white"/>
</svg>
