<svg width="20" height="20" viewBox="0 0 20 20" fill="none" xmlns="http://www.w3.org/2000/svg">
<path d="M15.4609 0.902704L15.4608 0.902586C15.4592 0.900968 15.4569 0.9 15.4545 0.9C15.4521 0.9 15.4499 0.900946 15.4482 0.902586L15.4481 0.902697L5.44817 10.9027L5.44794 10.9029C5.44633 10.9045 5.44541 10.9067 5.44541 10.9091V14.5455C5.44541 14.5472 5.44558 14.5481 5.44561 14.5482L5.44575 14.5487C5.44593 14.5491 5.4466 14.5504 5.44809 14.5519C5.44958 14.5534 5.45085 14.554 5.45129 14.5542L5.45176 14.5543C5.45183 14.5544 5.45207 14.5544 5.45251 14.5545C5.45296 14.5545 5.45361 14.5545 5.4545 14.5545H9.09087C9.09323 14.5545 9.09555 14.5536 9.09732 14.5518L19.0973 4.55185L19.7337 5.18824L19.0973 4.55185C19.0985 4.55056 19.099 4.54985 19.0991 4.54973L19.0993 4.54928C19.0995 4.54885 19.0999 4.5475 19.0999 4.54542C19.0999 4.54334 19.0995 4.542 19.0993 4.54156L19.0991 4.54112C19.099 4.541 19.0985 4.54029 19.0973 4.539M15.4609 0.902704L19.0973 4.539M15.4609 0.902704L19.0973 4.539M15.4609 0.902704L19.7337 3.90261L19.0973 4.539" stroke="#DFE8F1" stroke-width="1.8"/>
<path d="M19.0909 9.09097C18.5888 9.09097 18.1818 9.498 18.1818 10.0001V18.1818H1.81818V1.81818H10C10.5021 1.81818 10.9091 1.41115 10.9091 0.909091C10.9091 0.40703 10.5021 0 10 0H0.909091C0.407091 0 0 0.40703 0 0.909091V19.0909C0 19.593 0.407091 20 0.909091 20H19.0909C19.593 20 20 19.593 20 19.0909V10.0001C20 9.49794 19.593 9.09097 19.0909 9.09097Z" fill="#DFE8F1"/>
</svg>
