<svg width="40" height="40" viewBox="0 0 40 40" fill="none" xmlns="http://www.w3.org/2000/svg">
<rect width="40" height="40" rx="10" fill="#4792ED"/>
<path d="M29.6487 18.962C30.1171 19.582 30.1171 20.419 29.6487 21.038C28.1732 22.987 24.6331 27 20.5002 27C16.3672 27 12.8271 22.987 11.3516 21.038C11.1237 20.7411 11 20.3759 11 20C11 19.6241 11.1237 19.2589 11.3516 18.962C12.8271 17.013 16.3672 13 20.5002 13C24.6331 13 28.1732 17.013 29.6487 18.962V18.962Z" stroke="white" stroke-width="2" stroke-linecap="round" stroke-linejoin="round"/>
<path d="M20.5 23C22.1374 23 23.4648 21.6569 23.4648 20C23.4648 18.3431 22.1374 17 20.5 17C18.8626 17 17.5352 18.3431 17.5352 20C17.5352 21.6569 18.8626 23 20.5 23Z" stroke="white" stroke-width="2" stroke-linecap="round" stroke-linejoin="round"/>
</svg>
