<svg width="12" height="12" viewBox="0 0 12 12" fill="none" xmlns="http://www.w3.org/2000/svg">
<path d="M11.7773 11.7771C11.6289 11.9257 11.4512 12 11.2441 12C11.0371 12 10.8594 11.9257 10.7109 11.7771L8.39062 9.45455C7.45312 10.1505 6.40625 10.4985 5.25 10.4985C4.53906 10.4985 3.85938 10.3597 3.21094 10.0821C2.5625 9.8045 2.00391 9.43108 1.53516 8.96188C1.06641 8.49267 0.693359 7.93548 0.416016 7.29032C0.138672 6.64516 0 5.96481 0 5.24927C0 4.53372 0.138672 3.85142 0.416016 3.20235C0.693359 2.55327 1.06641 1.99609 1.53516 1.53079C2.00391 1.06549 2.5625 0.694037 3.21094 0.416422C3.85938 0.138807 4.53906 0 5.25 0C5.96094 0 6.64062 0.138807 7.28906 0.416422C7.9375 0.694037 8.49609 1.06549 8.96484 1.53079C9.43359 1.99609 9.80664 2.55327 10.084 3.20235C10.3613 3.85142 10.5 4.53177 10.5 5.2434C10.5 6.4086 10.1523 7.4565 9.45703 8.3871L11.7773 10.7097C11.9258 10.8583 12 11.0362 12 11.2434C12 11.4506 11.9258 11.6285 11.7773 11.7771ZM5.25 1.50147C4.57031 1.50147 3.94336 1.66764 3.36914 2C2.79492 2.33236 2.33984 2.78788 2.00391 3.36657C1.66797 3.94526 1.5 4.57282 1.5 5.24927C1.5 5.92571 1.66797 6.55327 2.00391 7.13196C2.33984 7.71065 2.79492 8.16618 3.36914 8.49853C3.94336 8.83089 4.57031 8.99707 5.25 8.99707C5.92969 8.99707 6.55664 8.83089 7.13086 8.49853C7.70508 8.16618 8.16016 7.71065 8.49609 7.13196C8.83203 6.55327 9 5.92571 9 5.24927C9 4.57282 8.83203 3.94526 8.49609 3.36657C8.16016 2.78788 7.70508 2.33236 7.13086 2C6.55664 1.66764 5.92969 1.50147 5.25 1.50147Z" fill="#8EB4E3"/>
</svg>
