<svg width="24" height="24" viewBox="0 0 24 24" fill="none" xmlns="http://www.w3.org/2000/svg">
<path d="M21.2943 16.528L18.1149 13.3485C17.453 12.6867 16.38 12.686 15.7174 13.3485L14.7914 14.2744C12.6757 12.9824 10.8982 11.2049 9.6061 9.08912L10.6214 8.07388C11.2823 7.41288 11.2823 6.33736 10.6213 5.67637L7.44189 2.49691C6.78192 1.83703 5.7104 1.8309 5.04242 2.49892L3.04446 4.51241C2.08852 5.31509 1.75228 6.63299 2.18823 7.88204C4.42528 14.2926 9.58805 19.4553 15.9986 21.6924C17.2046 22.1132 18.4432 21.7985 19.2307 20.9871C19.242 20.9771 19.2531 20.9667 19.264 20.9558L21.2943 18.9254C21.9553 18.2645 21.9553 17.189 21.2943 16.528ZM20.2815 17.9126L18.2971 19.897C18.2729 19.9171 18.2499 19.939 18.2284 19.9624C17.8107 20.4164 17.1388 20.5732 16.4706 20.3399C10.4687 18.2455 5.63513 13.4119 3.5407 7.40999C3.30088 6.72282 3.4739 6.01086 3.9815 5.59616C4.00078 5.58041 4.01926 5.56363 4.0368 5.54596L6.05728 3.50973C6.12425 3.44272 6.20254 3.43272 6.2432 3.43272C6.2839 3.43272 6.36211 3.44268 6.42912 3.50973L9.60848 6.68918C9.711 6.7917 9.711 6.95846 9.60853 7.06097L8.20178 8.46772C7.9744 8.69506 7.92642 9.04599 8.08436 9.32604C9.61095 12.0324 11.8482 14.2697 14.5546 15.7962C14.8346 15.9542 15.1855 15.9061 15.4129 15.6788L16.7303 14.3614C16.8329 14.2588 16.9994 14.2587 17.1021 14.3614L20.2815 17.5408C20.384 17.6434 20.384 17.8102 20.2815 17.9126Z" fill="#FFFF00"/>
<path fill-rule="evenodd" clip-rule="evenodd" d="M4.83028 2.28679C5.6159 1.50112 6.87737 1.50823 7.65401 2.28477L10.8335 5.46423C11.6116 6.24238 11.6116 7.50785 10.8335 8.28599L9.98652 9.13297C11.2005 11.0537 12.8269 12.6801 14.7476 13.894L15.5053 13.1363C16.2851 12.3566 17.5481 12.3575 18.327 13.1363L21.5064 16.3158C22.2846 17.094 22.2846 18.3595 21.5064 19.1376L19.4765 21.1675C19.4638 21.1803 19.451 21.1924 19.4384 21.2038C18.5666 22.0958 17.2087 22.4323 15.8997 21.9756C9.40286 19.7084 4.17218 14.4778 1.90499 7.9809C1.43267 6.62766 1.79071 5.18116 2.84088 4.29167L4.82947 2.28761L4.83028 2.28679ZM5.25456 2.71104C5.25444 2.71117 5.25469 2.71092 5.25456 2.71104L3.24781 4.7334L3.23738 4.74216C2.38391 5.4588 2.07348 6.64288 2.47147 7.78318C4.67838 14.1074 9.77325 19.2022 16.0974 21.4091C17.1968 21.7927 18.3119 21.503 19.0154 20.7782L19.0234 20.77L19.032 20.7624C19.0353 20.7594 19.0385 20.7565 19.0415 20.7537C19.045 20.7504 19.0483 20.7472 19.0515 20.7441L21.0822 18.7133C21.626 18.1695 21.626 17.284 21.0822 16.7401L17.9027 13.5606C17.9027 13.5606 17.9027 13.5606 17.9027 13.5606C17.358 13.0159 16.4748 13.0153 15.9295 13.5606C15.9295 13.5606 15.9295 13.5606 15.9295 13.5606L14.8366 14.6535L14.6351 14.5305C12.4787 13.2136 10.667 11.4019 9.35007 9.24548L9.227 9.04395L10.4092 7.86176C10.4092 7.86175 10.4092 7.86176 10.4092 7.86176C10.953 7.31792 10.953 6.43233 10.4092 5.8885M7.22976 2.70905C7.22975 2.70904 7.22976 2.70905 7.22976 2.70905L10.4092 5.8885L7.22976 2.70905ZM5.25456 2.71104C5.80491 2.16106 6.68658 2.16595 7.22976 2.70905L5.25456 2.71104ZM6.21692 3.7218C6.21694 3.72182 6.2169 3.72177 6.21692 3.7218V3.7218ZM6.2433 3.74818L9.37014 6.8751L7.98967 8.25557C7.98967 8.25556 7.98966 8.25558 7.98967 8.25557C7.66705 8.57814 7.59897 9.0761 7.82306 9.47341C9.37651 12.2274 11.6532 14.5041 14.4071 16.0575C14.8045 16.2817 15.3024 16.2134 15.625 15.891L16.9162 14.5998L20.0431 17.7267L18.0939 19.6759C18.0633 19.7021 18.0346 19.73 18.0076 19.7593C17.6802 20.1152 17.1381 20.2552 16.5694 20.0567C10.6539 17.9924 5.88824 13.2267 3.82394 7.31115C3.61964 6.72572 3.77483 6.1524 4.1713 5.82848C4.19867 5.80613 4.22485 5.78235 4.2497 5.75733L6.2433 3.74818ZM5.84508 3.29767C5.9891 3.15356 6.15816 3.13272 6.2432 3.13272C6.32824 3.13272 6.4972 3.1535 6.64125 3.2976M6.64125 3.2976L9.82062 6.47705C9.82062 6.47705 9.82061 6.47705 9.82062 6.47705C10.0403 6.69672 10.0403 7.05339 9.8207 7.27306L8.41391 8.67985C8.28178 8.81195 8.25387 9.01588 8.34566 9.17865C9.84538 11.8373 12.0433 14.0353 14.7019 15.5349C14.8645 15.6266 15.0685 15.5988 15.2007 15.4667C15.2008 15.4667 15.2007 15.4667 15.2007 15.4667L16.5182 14.1493C16.7378 13.9296 17.0942 13.9294 17.3142 14.1492L20.4937 17.3287C20.7131 17.5483 20.7133 17.9051 20.4936 18.1248L18.4993 20.119L18.4886 20.1279C18.4751 20.1392 18.4619 20.1517 18.4492 20.1655C17.9412 20.7177 17.1394 20.8912 16.3717 20.6231C10.2834 18.4986 5.38201 13.5971 3.25745 7.50883C2.98212 6.71991 3.17296 5.86933 3.79169 5.36384C3.80287 5.35471 3.81364 5.34494 3.82385 5.33466C3.82386 5.33464 3.82383 5.33468 3.82385 5.33466L5.84433 3.29842L5.84508 3.29767" fill="#FFFF00"/>
</svg>
